<svg xmlns="http://www.w3.org/2000/svg" width="1200" height="720" viewBox="0 0 1200 720"><rect width="1200" height="720" rx="18" fill="#102c3e"/><g font-family="Arial,sans-serif"><text x="55" y="62" fill="#8ee4d3" font-size="16" letter-spacing="3">VCV / DATA QUALITY &amp; OPERATIONS</text><text x="55" y="125" fill="#fff" font-size="42" font-weight="700">Trust the numbers.</text><text x="55" y="175" fill="#8ee4d3" font-size="42" font-weight="700">Know what needs review.</text><g fill="#fff"><rect x="55" y="220" width="350" height="110" rx="10"/><rect x="425" y="220" width="350" height="110" rx="10"/><rect x="795" y="220" width="350" height="110" rx="10"/><rect x="55" y="350" width="1090" height="284" rx="10"/></g><g fill="#627786" font-size="16"><text x="78" y="255">SOURCE TRANSACTION LINES</text><text x="448" y="255">REVIEW INCIDENCE</text><text x="818" y="255">SQL RECONCILIATION</text></g><g fill="#132e40" font-size="38" font-weight="700"><text x="78" y="304">541,909</text><text x="448" y="304">25.9%</text><text x="818" y="304">10 checks</text></g><text x="82" y="390" fill="#132e40" font-size="22" font-weight="700">Customer identification is the main limitation.</text><g fill="#627786" font-size="18"><text x="82" y="443">Missing customer IDs</text><text x="82" y="500">Duplicate candidates</text><text x="82" y="557">Zero unit price</text></g><g fill="#e7eff2"><rect x="350" y="425" width="585" height="22" rx="4"/><rect x="350" y="482" width="585" height="22" rx="4"/><rect x="350" y="539" width="585" height="22" rx="4"/></g><g fill="#187f83"><rect x="350" y="425" width="585" height="22" rx="4"/><rect x="350" y="482" width="23" height="22" rx="4"/><rect x="350" y="539" width="11" height="22" rx="4"/></g><g fill="#132e40" font-size="20" font-weight="700"><text x="974" y="444">135,080</text><text x="974" y="501">5,268</text><text x="974" y="558">2,515</text></g><text x="82" y="608" fill="#627786" font-size="14">Rules can overlap. Review signals are not confirmed errors. All source records are retained.</text><text x="55" y="682" fill="#b0c8d3" font-size="15">SQL · POWER BI · PYTHON     /     REAL HISTORICAL DATA · UCI ONLINE RETAIL</text></g></svg>
